<svg width="80" height="60" viewBox="0 0 80 60" fill="none" xmlns="http://www.w3.org/2000/svg">
<path d="M0 9.92994C0 7.29636 1.0505 4.77064 2.92041 2.90841C4.79031 1.04619 7.32645 0 9.9709 0H69.7963C72.4407 0 74.9769 1.04619 76.8468 2.90841C78.7167 4.77064 79.7672 7.29636 79.7672 9.92994V49.6497C79.7672 52.2833 78.7167 54.809 76.8468 56.6712C74.9769 58.5335 72.4407 59.5797 69.7963 59.5797H9.9709C7.32645 59.5797 4.79031 58.5335 2.92041 56.6712C1.0505 54.809 0 52.2833 0 49.6497V9.92994ZM9.9709 4.96497C8.64867 4.96497 7.3806 5.48806 6.44565 6.41918C5.5107 7.35029 4.98545 8.61315 4.98545 9.92994V11.0073L39.8836 31.8602L74.7817 11.0073V9.92994C74.7817 8.61315 74.2565 7.35029 73.3215 6.41918C72.3866 5.48806 71.1185 4.96497 69.7963 4.96497H9.9709ZM74.7817 16.7965L51.3102 30.8225L74.7817 45.2061V16.7965ZM74.6122 50.9356L46.4943 33.7022L39.8836 37.6494L33.2729 33.7022L5.15495 50.9307C5.43826 51.9872 6.06388 52.921 6.93471 53.5872C7.80553 54.2533 8.87283 54.6145 9.9709 54.6147H69.7963C70.8937 54.6148 71.9605 54.2543 72.8312 53.5891C73.702 52.924 74.328 51.9912 74.6122 50.9356ZM4.98545 45.2061L28.4569 30.8225L4.98545 16.7965V45.2061Z" fill="white"/>
</svg>
