<svg width="248" height="197" viewBox="0 0 248 197" fill="none" xmlns="http://www.w3.org/2000/svg">
<path d="M177.297 78.5194L175.784 77.0979C172.562 74.0719 167.498 74.2302 164.472 77.4514L127.505 116.804C124.479 120.025 124.637 125.089 127.858 128.115L129.372 129.537C132.593 132.563 137.657 132.404 140.683 129.183L177.65 89.8309C180.676 86.6097 180.518 81.5454 177.297 78.5194Z" fill="white"/>
<path d="M109.377 14.4025L107.864 12.9809C104.643 9.95498 99.5782 10.1132 96.5523 13.3344L59.585 52.6868C56.559 55.908 56.7173 60.9723 59.9385 63.9983L61.4517 65.4198C64.6729 68.4458 69.7372 68.2875 72.7632 65.0663L109.73 25.7139C112.756 22.4927 112.598 17.4284 109.377 14.4025Z" fill="white"/>
<path d="M87.1892 6.92041L85.6336 5.45908C82.4241 2.44411 77.3782 2.60181 74.3632 5.8113L50.3687 31.3539C47.3537 34.5634 47.5114 39.6093 50.7209 42.6243L52.2765 44.0856C55.486 47.1006 60.5319 46.9429 63.5469 43.7334L87.5414 18.1908C90.5564 14.9813 90.3987 9.93538 87.1892 6.92041Z" fill="white"/>
<path d="M185.873 100.573L184.317 99.1122C181.108 96.0972 176.062 96.2549 173.047 99.4644L149.052 125.007C146.037 128.216 146.195 133.262 149.405 136.277L150.96 137.739C154.17 140.754 159.216 140.596 162.231 137.386L186.225 111.844C189.24 108.634 189.082 103.588 185.873 100.573Z" fill="white"/>
<path d="M65.9471 8.90826L61.6575 4.87866C61.4422 4.67634 61.1036 4.68692 60.9013 4.90229L48.9398 17.6354C48.7375 17.8508 48.7481 18.1894 48.9635 18.3917L53.2531 22.4213C53.4684 22.6237 53.8071 22.6131 54.0094 22.3977L65.9708 9.66456C66.1731 9.44919 66.1625 9.11058 65.9471 8.90826Z" fill="white"/>
<path d="M188.594 124.11L184.304 120.08C184.089 119.878 183.75 119.888 183.548 120.104L171.586 132.837C171.384 133.052 171.395 133.391 171.61 133.593L175.9 137.623C176.115 137.825 176.454 137.814 176.656 137.599L188.617 124.866C188.82 124.65 188.809 124.312 188.594 124.11Z" fill="white"/>
<path d="M148.558 90.3247L98.2188 43.0365L89.3313 52.4973L139.67 99.7855L148.558 90.3247Z" fill="white"/>
<path d="M107.735 130.013L109.252 128.596C112.481 125.579 112.654 120.515 109.637 117.286L72.7797 77.8301C69.7627 74.6004 64.6989 74.428 61.4692 77.445L59.9521 78.8623C56.7224 81.8792 56.55 86.9431 59.567 90.1727L96.4242 129.628C99.4412 132.858 104.505 133.03 107.735 130.013Z" fill="white"/>
<path d="M176.151 66.4231L177.668 65.0058C180.897 61.9888 181.07 56.925 178.053 53.6953L141.196 14.2399C138.179 11.0102 133.115 10.8378 129.885 13.8548L128.368 15.2721C125.138 18.289 124.966 23.3529 127.983 26.5825L164.84 66.038C167.857 69.2676 172.921 69.44 176.151 66.4231Z" fill="white"/>
<path d="M185.067 44.7713L186.627 43.3143C189.845 40.3083 190.016 35.2628 187.01 32.0449L163.087 6.43544C160.081 3.21754 155.036 3.04576 151.818 6.05175L150.258 7.50874C147.04 10.5147 146.869 15.5602 149.875 18.7781L173.798 44.3876C176.804 47.6055 181.849 47.7773 185.067 44.7713Z" fill="white"/>
<path d="M85.1646 137.138L86.7243 135.681C89.9422 132.675 90.1139 127.629 87.108 124.412L63.1849 98.802C60.1789 95.5841 55.1334 95.4123 51.9155 98.4183L50.3559 99.8753C47.138 102.881 46.9662 107.927 49.9722 111.145L73.8952 136.754C76.9012 139.972 81.9467 140.144 85.1646 137.138Z" fill="white"/>
<path d="M184.462 23.4533L188.763 19.4357C188.979 19.234 188.991 18.8954 188.789 18.6794L176.863 5.91295C176.662 5.69702 176.323 5.68548 176.107 5.8872L171.806 9.90481C171.59 10.1065 171.579 10.4451 171.78 10.661L183.706 23.4275C183.908 23.6435 184.247 23.655 184.462 23.4533Z" fill="white"/>
<path d="M61.4937 138.319L65.7946 134.301C66.0105 134.1 66.022 133.761 65.8203 133.545L53.8945 120.779C53.6928 120.563 53.3542 120.551 53.1383 120.753L48.8375 124.77C48.6215 124.972 48.61 125.311 48.8117 125.527L60.7375 138.293C60.9392 138.509 61.2778 138.521 61.4937 138.319Z" fill="white"/>
<path d="M97.8298 100.573L148.301 53.4259L139.44 43.9403L88.9688 91.0877L97.8298 100.573Z" fill="white"/>
<path d="M24.789 175.028C27.028 178.099 28.1388 179.646 30.3255 182.74C30.8431 183.449 31.2443 183.903 31.5293 184.101C31.8143 184.298 32.2156 184.391 32.7215 184.38C33.6985 184.351 34.2801 184.769 34.4488 185.636C34.6465 186.659 34.2045 187.503 33.1402 188.177C32.0702 188.852 30.2266 189.451 27.6096 189.998C24.6494 190.614 22.4278 190.975 20.9506 191.027C20.2702 191.05 19.6945 190.911 19.2176 190.62C18.7465 190.323 18.4441 189.905 18.322 189.364C18.2289 188.945 18.2522 188.602 18.4034 188.323C18.5546 188.044 18.8861 187.747 19.3921 187.427C19.962 187.067 20.1888 186.619 20.0667 186.09C19.8573 185.159 19.1943 184.723 18.0893 184.804C16.903 184.891 15.2571 185.188 13.1635 185.688C11.4014 186.107 10.3778 186.479 10.0928 186.787C9.91255 186.979 9.79042 187.27 9.72063 187.671C9.65084 188.073 9.65666 188.439 9.74389 188.771C9.8195 189.073 9.92418 189.259 10.0579 189.323C10.1917 189.387 10.5988 189.451 11.2618 189.497C12.1109 189.561 12.6459 189.951 12.8262 190.701C13.2275 192.353 11.57 193.615 7.86544 194.557C5.76017 195.092 4.1725 195.36 3.11405 195.313C2.13121 195.272 1.50312 194.755 1.24141 193.778C1.1251 193.353 1.13673 192.993 1.27631 192.702C1.41588 192.417 1.72411 192.103 2.18936 191.771C2.95703 191.231 3.48044 190.614 3.77122 189.928C4.062 189.242 4.37023 187.852 4.70754 185.764C5.16698 182.914 5.40542 181.489 5.89975 178.64C6.35918 176.023 6.63252 174.086 6.70812 172.83C6.78373 171.574 6.69068 170.376 6.42897 169.253C6.14982 168.061 6.02188 167.212 6.03932 166.718C6.05677 166.223 6.23706 165.694 6.58599 165.142C7.30713 163.938 8.41211 163.158 9.90091 162.809C11.3025 162.478 12.7797 162.734 14.2975 163.531C16.397 164.636 19.9736 168.439 24.789 175.022V175.028ZM11.3374 180.809C12.9076 180.431 13.6985 180.245 15.2746 179.878C15.9957 179.71 16.3214 179.46 16.2458 179.128C16.1411 178.669 15.3793 177.657 13.9544 176.098C13.3031 175.383 12.8262 174.918 12.5121 174.697C12.2039 174.476 11.9131 174.4 11.6398 174.464C11.1513 174.58 10.8547 175.139 10.7558 176.151C10.7326 176.29 10.6511 176.825 10.5232 177.767C10.2964 179.314 10.2208 180.233 10.2906 180.506C10.372 180.855 10.7209 180.954 11.3374 180.803V180.809Z" stroke="white" stroke-width="2.32626" stroke-miterlimit="10"/>
<path d="M46.7369 173.516C46.2309 173.586 45.9227 173.813 45.8297 174.162C45.7424 174.511 45.7948 175.272 45.9867 176.453C46.2775 178.238 46.6148 179.617 46.9928 180.582C47.1033 180.855 47.2429 181.053 47.3999 181.187C47.5569 181.321 47.8419 181.472 48.249 181.635C49.1213 181.972 49.6156 182.519 49.7378 183.281C49.8832 184.211 49.4354 184.955 48.3944 185.52C47.3534 186.084 45.5272 186.578 42.9102 187.037C38.0425 187.887 35.4313 187.386 35.0591 185.427C34.9951 185.089 35.0184 184.804 35.123 184.577C35.2277 184.345 35.5069 183.996 35.9547 183.536C36.4606 183.019 36.7689 182.466 36.8736 181.873C36.9782 181.28 36.9375 180.291 36.7747 178.925C36.6526 177.919 36.0361 174.342 34.9021 168.201C34.5415 166.252 34.2042 164.944 33.8785 164.281C33.5528 163.618 33.041 163.17 32.349 162.978C31.6918 162.792 31.2266 162.606 30.9707 162.402C30.7148 162.199 30.5519 161.896 30.4763 161.507C30.3775 160.989 30.488 160.501 30.8137 160.035C31.1393 159.576 31.6395 159.186 32.3199 158.872C32.8898 158.605 33.704 158.378 34.7508 158.186C35.2103 158.105 36.3792 157.965 38.2519 157.785C38.6066 157.756 39.1649 157.668 39.921 157.54C41.183 157.325 42.852 156.953 44.9224 156.459C46.2309 156.145 47.1673 155.953 47.6965 155.871C50.7032 155.412 53.3028 155.784 55.4604 156.971C57.4028 158.041 58.5194 159.75 58.8276 162.083C59.0021 163.385 58.8509 164.607 58.3856 165.752C57.9262 166.898 57.2051 167.817 56.228 168.497C55.8209 168.782 55.6407 169.085 55.6872 169.393C55.7453 169.8 56.1234 170.085 56.827 170.248C58.3333 170.585 59.4848 171.26 60.2932 172.26C61.1015 173.26 61.7878 174.877 62.3635 177.081C62.602 178 62.8579 178.582 63.1196 178.826C63.3813 179.07 63.9454 179.268 64.8003 179.425C65.062 179.477 65.3004 179.634 65.5098 179.884C65.7192 180.14 65.8413 180.437 65.882 180.774C65.9344 181.21 65.8297 181.675 65.568 182.158C65.3063 182.641 64.9399 183.042 64.4688 183.362C63.4278 184.054 61.9448 184.525 60.0198 184.787C57.4493 185.136 55.5069 184.682 54.1751 183.391C53.5761 182.815 53.0236 182.065 52.5235 181.129C52.0233 180.192 51.372 178.721 50.5636 176.709C50.046 175.418 49.5051 174.534 48.941 174.063C48.3769 173.592 47.6151 173.382 46.7427 173.504L46.7369 173.516ZM43.8 162.943C44.0326 164.926 44.1431 165.915 44.3757 167.898C44.3816 167.939 44.3932 168.003 44.4048 168.09C44.4862 168.596 44.6142 168.922 44.7887 169.067C44.9573 169.212 45.2655 169.247 45.7017 169.178C46.9056 168.986 47.7256 168.526 48.1734 167.799C48.6212 167.072 48.7375 166.008 48.5223 164.595C48.1036 161.873 46.9404 160.658 45.0387 160.966C44.4979 161.053 44.1373 161.245 43.957 161.53C43.7767 161.821 43.7244 162.292 43.8058 162.943H43.8Z" stroke="white" stroke-width="2.32626" stroke-miterlimit="10"/>
<path d="M68.2381 153.533C72.5824 153.051 74.7574 152.836 79.1133 152.458C81.3175 152.266 82.9168 152.091 83.9229 151.917C84.9232 151.748 85.8944 151.486 86.8365 151.132C87.1273 151.027 87.3599 150.963 87.5286 150.951C88.2614 150.899 88.9418 151.254 89.5582 152.01C90.576 153.243 91.1401 154.778 91.2564 156.616C91.3146 157.54 91.1692 158.285 90.8202 158.843C90.4713 159.401 89.9653 159.704 89.2965 159.75C88.8371 159.779 88.4707 159.71 88.2032 159.535C87.9299 159.361 87.5577 158.954 87.075 158.32C86.3945 157.413 85.5629 156.831 84.5975 156.587C83.6263 156.342 82.0619 156.302 79.9101 156.488C78.2991 156.627 77.3454 157.011 77.0546 157.628C76.9034 157.959 76.8336 158.384 76.8511 158.913C76.8627 159.442 76.9732 160.786 77.1767 162.943C77.2581 163.792 77.4442 164.31 77.7408 164.49C78.0374 164.67 78.7644 164.705 79.9392 164.601C80.5149 164.548 80.9278 164.391 81.1663 164.118C81.4047 163.845 81.5326 163.385 81.5501 162.745C81.5734 161.92 81.6315 161.338 81.7071 161.024C81.7827 160.71 81.963 160.425 82.2131 160.175C82.4806 159.902 82.8121 159.739 83.2017 159.71C83.7717 159.663 84.2893 159.902 84.7254 160.425C85.0511 160.809 85.3535 161.524 85.6327 162.554C85.9118 163.583 86.0921 164.665 86.1793 165.805C86.348 168.049 86.1561 169.916 85.5978 171.405C85.2954 172.213 84.772 172.65 84.0276 172.708C83.5681 172.743 83.2366 172.644 83.0447 172.411C82.847 172.178 82.6725 171.673 82.5097 170.899C82.1782 169.311 81.2012 168.584 79.6077 168.724C78.9912 168.776 78.5899 169.021 78.4038 169.445C78.2177 169.87 78.177 170.631 78.2759 171.725C78.3399 172.394 78.462 173.249 78.6481 174.301C78.8342 175.348 78.997 176.046 79.1133 176.372C79.2645 176.779 79.6193 177.052 80.1892 177.162C80.7592 177.273 81.6955 177.273 82.9924 177.162C85.0046 176.994 86.4934 176.604 87.4762 175.982C88.4533 175.36 89.2209 174.307 89.7676 172.824C90.0875 171.975 90.3957 171.393 90.6807 171.091C90.9656 170.789 91.3553 170.62 91.8438 170.585C92.4137 170.55 92.9022 170.777 93.3093 171.277C93.7164 171.771 93.9374 172.411 93.9839 173.196C94.0363 174.051 93.8909 175.127 93.5536 176.436C93.2163 177.744 92.7801 178.913 92.2451 179.948C91.9717 180.448 91.7391 180.791 91.553 180.966C91.3669 181.14 91.1168 181.239 90.8144 181.262C90.5643 181.28 90.1863 181.262 89.7094 181.21C88.8545 181.111 87.703 181.076 86.2782 181.14C80.6487 181.571 75.0133 182.112 69.4012 182.769C68.7266 182.844 68.1857 182.745 67.7728 182.472C67.3657 182.199 67.1215 181.768 67.0517 181.193C67.0052 180.78 67.0517 180.477 67.1854 180.274C67.325 180.07 67.6623 179.78 68.2032 179.442C68.5754 179.21 68.8545 178.954 69.0174 178.657C69.1802 178.366 69.2849 177.953 69.3314 177.413C69.5292 175.226 69.4303 172.312 69.0232 168.689C68.4067 163.217 67.6914 159.803 66.854 158.454C66.6795 158.186 66.505 158.006 66.3247 157.913C66.1444 157.82 65.7781 157.727 65.2314 157.634C64.4114 157.488 63.9461 157 63.8414 156.162C63.7891 155.709 63.8705 155.29 64.0973 154.906C64.3241 154.522 64.6498 154.237 65.0685 154.08C65.592 153.882 66.6562 153.702 68.2381 153.528V153.533Z" stroke="white" stroke-width="2.32626" stroke-miterlimit="10"/>
<path d="M105.604 151.87C109.949 155.453 112.083 157.273 116.27 160.954C117.253 161.815 117.951 162.24 118.381 162.24C119.103 162.24 119.457 161.443 119.446 159.855C119.434 158.058 119.324 156.831 119.108 156.18C118.893 155.528 118.445 155.04 117.771 154.714C117.224 154.452 116.829 154.162 116.602 153.859C116.375 153.557 116.259 153.161 116.247 152.679C116.23 151.481 117.038 150.701 118.661 150.347C119.324 150.201 120.487 150.12 122.144 150.12C124.284 150.12 125.767 150.265 126.581 150.521C127.878 150.934 128.518 151.696 128.506 152.812C128.495 153.737 127.96 154.429 126.901 154.889C126.477 155.069 126.192 155.232 126.035 155.371C125.878 155.511 125.744 155.726 125.628 156.011C125.244 156.947 125.04 158.733 125.011 161.356C124.994 164.147 124.988 165.537 124.971 168.329C124.965 169.399 124.965 170.864 124.971 172.714C124.971 175.22 124.813 177.035 124.517 178.145C124.151 179.524 123.493 180.216 122.551 180.216C122.138 180.216 121.784 180.123 121.481 179.937C121.179 179.75 120.684 179.326 119.987 178.657C115.997 174.86 111.914 171.138 107.774 167.514C106.901 166.741 106.18 166.369 105.622 166.386C104.784 166.415 104.412 167.636 104.505 170.044C104.581 172.027 104.738 173.377 104.97 174.092C105.209 174.813 105.651 175.331 106.308 175.65C107.221 176.092 107.692 176.691 107.715 177.447C107.779 179.431 105.82 180.466 101.847 180.646C100.056 180.727 98.6489 180.541 97.6311 180.094C96.6134 179.64 96.0726 178.954 96.0202 178.029C95.9911 177.546 96.0667 177.174 96.2412 176.924C96.4157 176.674 96.8228 176.319 97.4567 175.871C98.0673 175.441 98.4163 174.714 98.4977 173.696C98.6431 171.859 98.6198 169.201 98.4453 165.752C98.2592 162.077 97.9219 159.413 97.416 157.75C97.2299 157.145 97.0089 156.697 96.7588 156.412C96.5029 156.127 96.0958 155.86 95.5375 155.621C94.8862 155.342 94.4325 155.063 94.1708 154.778C93.9091 154.493 93.7637 154.138 93.7405 153.708C93.6591 152.341 94.7757 151.411 97.0903 150.934C97.8754 150.777 99.2595 150.655 101.243 150.568C102.377 150.521 103.203 150.579 103.726 150.736C104.249 150.893 104.877 151.277 105.604 151.876V151.87Z" stroke="white" stroke-width="2.32626" stroke-miterlimit="10"/>
<path d="M155.293 166.124C156.607 169.689 157.253 171.475 158.509 175.046C158.811 175.871 159.073 176.418 159.294 176.686C159.515 176.953 159.87 177.151 160.358 177.279C161.306 177.517 161.748 178.075 161.673 178.954C161.585 179.989 160.934 180.687 159.73 181.047C158.521 181.408 156.596 181.483 153.938 181.297C150.937 181.088 148.715 180.832 147.285 180.483C146.628 180.32 146.11 180.03 145.738 179.622C145.366 179.21 145.191 178.727 145.22 178.174C145.243 177.744 145.36 177.418 145.581 177.197C145.802 176.97 146.197 176.779 146.773 176.604C147.413 176.412 147.75 176.046 147.779 175.499C147.831 174.545 147.314 173.946 146.232 173.725C145.075 173.487 143.417 173.33 141.283 173.243C139.486 173.167 138.41 173.248 138.049 173.464C137.828 173.597 137.631 173.847 137.456 174.214C137.282 174.58 137.189 174.935 137.177 175.278C137.165 175.592 137.218 175.796 137.328 175.895C137.439 175.993 137.811 176.168 138.433 176.395C139.23 176.686 139.631 177.209 139.602 177.977C139.538 179.675 137.613 180.437 133.821 180.344C131.67 180.291 130.082 180.111 129.082 179.779C128.157 179.471 127.698 178.808 127.709 177.796C127.709 177.354 127.82 177.011 128.035 176.773C128.244 176.534 128.622 176.319 129.157 176.127C130.035 175.813 130.704 175.365 131.164 174.784C131.623 174.202 132.292 172.952 133.182 171.027C134.391 168.41 135.002 167.107 136.247 164.496C137.392 162.106 138.177 160.314 138.584 159.122C138.992 157.93 139.23 156.755 139.282 155.604C139.34 154.383 139.445 153.528 139.596 153.057C139.748 152.585 140.062 152.126 140.544 151.69C141.556 150.73 142.824 150.277 144.342 150.346C145.773 150.41 147.116 151.05 148.355 152.237C150.065 153.871 152.461 158.5 155.293 166.142V166.124ZM140.858 168.043C142.463 168.107 143.266 168.142 144.871 168.218C145.61 168.253 145.988 168.102 146.005 167.759C146.028 167.287 145.575 166.107 144.633 164.223C144.202 163.362 143.871 162.78 143.632 162.484C143.394 162.187 143.138 162.036 142.865 162.024C142.365 162.001 141.934 162.466 141.562 163.403C141.504 163.531 141.283 164.025 140.905 164.897C140.271 166.328 139.951 167.189 139.94 167.474C139.928 167.828 140.236 168.02 140.864 168.043H140.858Z" stroke="white" stroke-width="2.32626" stroke-miterlimit="10"/>
<path d="M175.613 178.651C175.799 178.669 176.247 178.768 176.921 178.954C177.23 179.041 177.485 179.105 177.672 179.128C178.806 179.262 179.585 178.395 179.986 176.523C180.213 175.464 180.643 172.411 181.266 167.369C181.359 166.607 181.277 166.055 181.01 165.723C180.742 165.392 180.213 165.171 179.416 165.078C179.224 165.054 178.945 165.043 178.585 165.043C178.306 165.043 178.067 165.025 177.858 165.002C177.392 164.95 177.026 164.775 176.764 164.479C176.503 164.182 176.398 163.821 176.445 163.397C176.497 162.943 176.77 162.519 177.265 162.123C177.759 161.728 178.422 161.408 179.253 161.158C183.383 159.925 187.698 159.622 192.135 160.268C193.345 160.442 194.205 160.722 194.711 161.094C195.217 161.466 195.421 161.966 195.322 162.606C195.264 162.972 195.13 163.246 194.921 163.42C194.711 163.6 194.316 163.763 193.74 163.926C192.827 164.176 192.269 164.572 192.065 165.107C191.862 165.636 191.35 167.846 190.838 171.498C190.321 175.197 190.158 177.331 190.135 177.599C190.111 177.866 190.105 178.256 190.135 178.744C190.175 179.506 190.408 180.076 190.809 180.419C191.21 180.768 191.955 181.053 193.048 181.274C194.287 181.524 194.828 182.164 194.665 183.193C194.496 184.263 193.502 184.827 191.699 184.897C189.187 184.996 186.645 184.862 184.075 184.513C182.382 184.287 180.789 183.978 179.317 183.571C177.468 183.065 176.032 182.53 175.031 182.001C174.054 181.483 173.606 180.838 173.7 180.041C173.746 179.617 173.955 179.268 174.322 178.994C174.688 178.721 175.13 178.599 175.619 178.645L175.613 178.651Z" stroke="white" stroke-width="2.32626" stroke-miterlimit="10"/>
<path d="M212.152 160.989C215.072 161.536 217.671 162.548 219.922 164.013C221.155 164.816 222.068 165.869 222.661 167.136C223.092 168.061 223.202 169.044 222.981 170.091C222.632 171.737 221.446 172.946 219.439 173.737C218.84 173.976 218.515 174.202 218.474 174.412C218.433 174.61 218.689 174.993 219.23 175.575C219.98 176.377 220.504 177.355 220.812 178.477C221.12 179.599 221.155 180.698 220.928 181.774C220.579 183.391 219.684 184.845 218.253 186.148C215.712 188.468 212.35 189.201 208.111 188.398C205.185 187.846 202.679 186.828 200.591 185.328C199.178 184.31 198.143 183.048 197.48 181.577C196.985 180.472 196.828 179.245 197.043 177.907C197.334 176.093 198.375 174.72 200.184 173.807C200.853 173.458 201.207 173.167 201.248 172.946C201.277 172.766 201.079 172.376 200.649 171.783C199.573 170.288 199.172 168.648 199.457 166.863C199.858 164.386 201.393 162.594 204.092 161.542C206.43 160.623 209.128 160.437 212.147 161.007L212.152 160.989ZM205.197 176.68C204.889 176.622 204.615 176.732 204.383 177C204.15 177.267 203.987 177.645 203.906 178.122C203.807 178.669 203.842 179.291 203.993 179.983C204.144 180.675 204.383 181.268 204.708 181.763C205.482 182.961 206.552 183.682 207.93 183.938C208.739 184.089 209.419 184.025 209.977 183.74C210.536 183.455 210.873 183.001 210.989 182.391C211.123 181.705 211.001 181.1 210.623 180.576C210.245 180.053 209.384 179.279 208.029 178.279C206.738 177.331 205.778 176.79 205.197 176.68ZM212.356 165.054C211.751 164.938 211.21 165.002 210.745 165.241C210.28 165.479 210.006 165.834 209.919 166.293C209.785 167.02 210.158 167.852 211.013 168.782C211.966 169.823 212.781 170.422 213.478 170.556C213.833 170.626 214.2 170.44 214.583 170.009C214.967 169.573 215.217 169.05 215.339 168.433C215.502 167.607 215.316 166.921 214.804 166.369C214.165 165.688 213.35 165.235 212.356 165.049V165.054Z" stroke="white" stroke-width="2.32626" stroke-miterlimit="10"/>
<path d="M237.108 168.817C238.986 169.271 240.685 170.195 242.185 171.556C244.209 173.4 245.471 175.714 245.965 178.465C246.332 180.477 246.239 182.501 245.692 184.525C244.697 188.218 242.522 190.876 239.237 192.527C236.73 193.789 234.177 194.098 231.56 193.464C228.669 192.76 226.448 191.178 224.854 188.701C222.97 185.776 222.418 182.327 223.29 178.337C224.139 174.452 225.948 171.643 228.751 169.951C231.228 168.457 234.032 168.061 237.108 168.811V168.817ZM235.136 174.894C233.921 174.563 232.985 175.54 232.467 177.732C231.787 180.605 231.705 183.31 232.2 185.851C232.397 186.84 232.833 187.416 233.52 187.578C234.718 187.869 235.596 186.91 236.148 184.682C236.457 183.438 236.66 182.071 236.753 180.588C236.846 179.105 236.794 177.866 236.608 176.883C236.404 175.79 235.898 175.098 235.136 174.894Z" stroke="white" stroke-width="2.32626" stroke-miterlimit="10"/>
</svg>
