<svg width="63" height="71" viewBox="0 0 63 71" fill="none" xmlns="http://www.w3.org/2000/svg">
<path d="M35.6293 0H44.4476C45.0889 3.17129 46.8526 7.172 49.9479 11.1417C52.9764 15.0315 56.9936 17.7415 62.3513 17.7415V26.6122C54.5441 26.6122 48.6786 23.0019 44.5367 18.4999V48.7891C44.5367 53.1753 43.2307 57.463 40.7838 61.1099C38.3369 64.7569 34.8591 67.5994 30.7901 69.2779C26.7211 70.9564 22.2436 71.3956 17.924 70.5399C13.6044 69.6842 9.63654 67.572 6.52225 64.4705C3.40797 61.369 1.28712 57.4175 0.42789 53.1156C-0.431339 48.8137 0.00964856 44.3547 1.69509 40.3024C3.38052 36.2501 6.23471 32.7866 9.89672 30.3497C13.5587 27.9129 17.8641 26.6122 22.2683 26.6122V35.483C19.6258 35.483 17.0426 36.2634 14.8454 37.7255C12.6482 39.1876 10.9357 41.2657 9.92439 43.6971C8.91313 46.1285 8.64853 48.8039 9.16407 51.385C9.67961 53.9662 10.9521 56.3371 12.8207 58.198C14.6893 60.0589 17.07 61.3262 19.6617 61.8396C22.2535 62.353 24.94 62.0895 27.3814 61.0824C29.8228 60.0753 31.9095 58.3698 33.3776 56.1816C34.8457 53.9934 35.6293 51.4208 35.6293 48.7891V0Z" fill="white"/>
</svg>
