<svg width="71" height="71" viewBox="0 0 71 71" fill="none" xmlns="http://www.w3.org/2000/svg">
<path d="M60.5743 10.3169C57.308 7.03251 53.4177 4.42873 49.1303 2.65745C44.8429 0.886175 40.2443 -0.0171242 35.6026 0.000245831C16.1535 0.000245831 0.302849 15.7813 0.285035 35.155C0.285035 41.3601 1.91508 47.3967 4.99256 52.7413L0 70.9662L18.7232 66.0784C23.9005 68.8915 29.7049 70.3633 35.6026 70.3586H35.6204C55.0741 70.3586 70.9202 54.5775 70.938 35.1861C70.942 30.5647 70.0279 25.9881 68.2485 21.72C66.4691 17.4519 63.8639 13.5765 60.5743 10.3169ZM35.6026 64.4063C30.3436 64.4022 25.182 62.993 20.6561 60.3258L19.5872 59.6871L8.47978 62.5878L11.4459 51.7966L10.7512 50.6833C7.81087 46.0276 6.25583 40.6373 6.26631 35.1373C6.26631 19.0546 19.4358 5.93478 35.6204 5.93478C39.4762 5.92789 43.2951 6.68114 46.8571 8.1511C50.4191 9.62105 53.6538 11.7786 56.3745 14.4995C59.1042 17.2102 61.2682 20.432 62.7419 23.9793C64.2156 27.5267 64.9699 31.3294 64.9612 35.1683C64.9434 51.3087 51.7739 64.4063 35.6026 64.4063ZM51.7026 42.5222C50.8253 42.0831 46.4918 39.9585 45.6768 39.6569C44.8662 39.3686 44.2739 39.2178 43.6949 40.096C43.1026 40.9698 41.4102 42.9613 40.9025 43.5334C40.3948 44.1233 39.8692 44.1899 38.9874 43.7552C38.11 43.3117 35.2641 42.3891 31.8972 39.3864C29.2695 37.0578 27.5103 34.1748 26.9848 33.301C26.4771 32.4228 26.9358 31.9527 27.3767 31.5136C27.7642 31.1233 28.2541 30.4846 28.695 29.9789C29.1403 29.4733 29.2873 29.1007 29.5768 28.5153C29.8663 27.9209 29.7282 27.4153 29.51 26.9762C29.2873 26.5371 27.5281 22.2037 26.7844 20.4562C26.0718 18.7308 25.3458 18.9703 24.8025 18.9482C24.2948 18.9171 23.7024 18.9171 23.1101 18.9171C22.6628 18.9285 22.2227 19.0316 21.8173 19.2201C21.4119 19.4086 21.05 19.6784 20.7541 20.0127C19.9435 20.8909 17.6766 23.0154 17.6766 27.3488C17.6766 31.6821 20.8387 35.8469 21.2841 36.4368C21.7205 37.0267 27.4925 45.8931 36.3508 49.7075C38.4441 50.6167 40.0919 51.1534 41.379 51.5615C43.4945 52.2356 45.4051 52.1336 46.9283 51.9163C48.6207 51.659 52.1435 49.7873 52.8873 47.7337C53.6177 45.6757 53.6177 43.9193 53.395 43.5512C53.1768 43.1786 52.5845 42.9613 51.7026 42.5222Z" fill="white"/>
</svg>
